<svg xmlns="http://www.w3.org/2000/svg" viewBox="0 0 64 64" role="img" aria-labelledby="title"><title>Matrix QA</title><defs><linearGradient id="mqa-hex" x1="0" y1="0" x2="64" y2="64" gradientUnits="userSpaceOnUse"><stop offset="0" stop-color="#a8ffb7"/><stop offset="1" stop-color="#74d7e6"/></linearGradient></defs><rect width="64" height="64" rx="14" fill="#111820"/><polygon points="32,4 58,18 58,46 32,60 6,46 6,18" fill="none" stroke="url(#mqa-hex)" stroke-width="3" stroke-linejoin="round"/><g fill="url(#mqa-hex)"><circle cx="32" cy="4" r="3"/><circle cx="58" cy="18" r="3"/><circle cx="58" cy="46" r="3"/><circle cx="32" cy="60" r="3"/><circle cx="6" cy="46" r="3"/><circle cx="6" cy="18" r="3"/></g><g stroke="#a8ffb7" stroke-opacity=".45" stroke-width="1" stroke-dasharray="1.5 2" stroke-linecap="round"><path d="M20 22h24M20 32h24M20 42h24M20 22v20M32 22v20M44 22v20"/></g><g fill="#f7fbff"> <circle cx="20" cy="22" r="2.4"/><circle cx="32" cy="22" r="2.4"/><circle cx="44" cy="22" r="2.4"/><circle cx="20" cy="32" r="2.4"/><circle cx="32" cy="32" r="3" fill="#a8ffb7"/><circle cx="44" cy="32" r="2.4"/><circle cx="20" cy="42" r="2.4"/><circle cx="32" cy="42" r="2.4"/><circle cx="44" cy="42" r="2.4"/></g></svg>
